# xmcd CD database file
#
# Track frame offsets:
#	150
#	10476
#	17475
#	24240
#	36615
#	47077
#	58557
#	67255
#	81634
#	91717
#	100770
#	113354
#	124404
#	135728
#
# Disc length: 2008 seconds
#
# Revision: 1
# Processed by: cddbd v1.5.2PL0 Copyright (c) Steve Scherf et al.
# Submitted via: CDex 1.70beta2
#
DISCID=b907d60e
DTITLE=Walter Wanderley - Let's Walter Wanderley
DYEAR=2007
DGENRE=Jazz
TTITLE0=Batucada Surgiu
TTITLE1=Vou de Samba com Você
TTITLE2=Deixa Isso pra Lá
TTITLE3=Vivo Sonhando
TTITLE4=Berimbau
TTITLE5=Gimbo
TTITLE6=Bicho do Mato
TTITLE7=Samba de Verão
TTITLE8=Telefone
TTITLE9=Mar, Amar
TTITLE10=Por Causa de Você Menina
TTITLE11=Miss Biquini
TTITLE12=Chove Chuva
TTITLE13=Você
EXTD=YEAR: 2007
EXTT0=
EXTT1=
EXTT2=
EXTT3=
EXTT4=
EXTT5=
EXTT6=
EXTT7=
EXTT8=
EXTT9=
EXTT10=
EXTT11=
EXTT12=
EXTT13=
PLAYORDER=
